<svg width="1764" height="1351" viewBox="0 0 1764 1351" fill="none" xmlns="http://www.w3.org/2000/svg">
<g clip-path="url(#clip0_1_5)">
<rect width="1764" height="1351" fill="#24292E"/>
<g style="mix-blend-mode:lighten">
<path fill-rule="evenodd" clip-rule="evenodd" d="M717.978 92.117L720.734 93.624C720.796 93.6581 720.847 93.708 720.883 93.7687C720.919 93.8294 720.938 93.8986 720.938 93.969C720.938 94.0395 720.919 94.1087 720.883 94.1694C720.847 94.23 720.796 94.28 720.734 94.314L717.978 95.822C717.912 95.8584 717.858 95.9124 717.822 95.978L716.315 98.734C716.281 98.796 716.231 98.8477 716.171 98.8838C716.11 98.9198 716.041 98.9388 715.97 98.9388C715.899 98.9388 715.83 98.9198 715.769 98.8838C715.709 98.8477 715.659 98.796 715.625 98.734L714.117 95.979C714.081 95.9117 714.027 95.8561 713.96 95.819L711.205 94.314C711.143 94.28 711.092 94.23 711.056 94.1694C711.02 94.1087 711.001 94.0395 711.001 93.969C711.001 93.8986 711.02 93.8294 711.056 93.7687C711.092 93.708 711.143 93.6581 711.205 93.624L713.96 92.116C714.026 92.0799 714.081 92.0254 714.117 91.959L715.624 89.205C715.658 89.1431 715.708 89.0913 715.768 89.0553C715.829 89.0193 715.898 89.0002 715.969 89.0002C716.04 89.0002 716.109 89.0193 716.17 89.0553C716.23 89.0913 716.28 89.1431 716.314 89.205L717.822 91.959C717.858 92.026 717.912 92.08 717.978 92.117Z" fill="#D15D64"/>
</g>
<g style="mix-blend-mode:lighten">
<path fill-rule="evenodd" clip-rule="evenodd" d="M239.057 166.72L240.417 167.465C240.479 167.499 240.531 167.549 240.566 167.61C240.602 167.671 240.621 167.74 240.621 167.811C240.621 167.882 240.602 167.951 240.566 168.012C240.531 168.073 240.479 168.123 240.417 168.157L239.057 168.9C238.991 168.937 238.937 168.991 238.901 169.057L238.158 170.417C238.124 170.479 238.074 170.531 238.013 170.567C237.952 170.603 237.883 170.623 237.812 170.623C237.741 170.623 237.672 170.603 237.611 170.567C237.55 170.531 237.5 170.479 237.466 170.417L236.723 169.057C236.687 168.991 236.632 168.936 236.566 168.9L235.206 168.157C235.144 168.123 235.092 168.073 235.056 168.012C235.02 167.951 235.002 167.882 235.002 167.811C235.002 167.74 235.02 167.671 235.056 167.61C235.092 167.549 235.144 167.499 235.206 167.465L236.566 166.721C236.632 166.685 236.687 166.632 236.723 166.566L237.466 165.206C237.5 165.144 237.55 165.092 237.611 165.057C237.672 165.021 237.741 165.002 237.812 165.002C237.883 165.002 237.952 165.021 238.013 165.057C238.074 165.092 238.124 165.144 238.158 165.206L238.902 166.566C238.939 166.632 238.994 166.686 239.059 166.722" fill="#FCD05C"/>
</g>
<path d="M409.472 108L408 109.47M413.47 104L412 105.472M409.543 108.163C409.715 108.335 409.919 108.471 410.144 108.565C410.369 108.658 410.61 108.706 410.853 108.706C411.096 108.706 411.337 108.658 411.562 108.565C411.787 108.471 411.991 108.335 412.163 108.163C412.335 107.991 412.472 107.787 412.565 107.562C412.658 107.337 412.706 107.096 412.706 106.853C412.706 106.61 412.658 106.369 412.565 106.144C412.472 105.919 412.335 105.715 412.163 105.543C411.991 105.371 411.787 105.235 411.562 105.141C411.337 105.048 411.096 105 410.853 105C410.61 105 410.369 105.048 410.144 105.141C409.919 105.235 409.715 105.371 409.543 105.543C409.371 105.715 409.234 105.919 409.141 106.144C409.048 106.369 409 106.61 409 106.853C409 107.096 409.048 107.337 409.141 107.562C409.234 107.787 409.371 107.991 409.543 108.163Z" stroke="#7B63AB" stroke-width="1.097" stroke-linecap="round" stroke-linejoin="round"/>
<g style="mix-blend-mode:lighten">
<path fill-rule="evenodd" clip-rule="evenodd" d="M961.978 138.117L964.734 139.624C964.796 139.658 964.847 139.708 964.883 139.769C964.919 139.829 964.938 139.899 964.938 139.969C964.938 140.039 964.919 140.109 964.883 140.169C964.847 140.23 964.796 140.28 964.734 140.314L961.978 141.821C961.912 141.858 961.858 141.914 961.822 141.981L960.315 144.735C960.281 144.797 960.231 144.849 960.171 144.885C960.11 144.921 960.041 144.94 959.97 144.94C959.899 144.94 959.83 144.921 959.769 144.885C959.709 144.849 959.659 144.797 959.625 144.735L958.117 141.979C958.081 141.913 958.026 141.858 957.96 141.822L955.205 140.317C955.143 140.283 955.092 140.233 955.056 140.172C955.02 140.112 955.001 140.042 955.001 139.972C955.001 139.902 955.02 139.832 955.056 139.772C955.092 139.711 955.143 139.661 955.205 139.627L957.96 138.119C958.026 138.083 958.081 138.029 958.117 137.963L959.624 135.208C959.658 135.146 959.708 135.094 959.768 135.058C959.829 135.022 959.898 135.003 959.969 135.003C960.04 135.003 960.109 135.022 960.17 135.058C960.23 135.094 960.28 135.146 960.314 135.208L961.822 137.963C961.858 138.029 961.912 138.083 961.978 138.119" fill="#D15D64"/>
</g>
<g style="mix-blend-mode:lighten">
<path fill-rule="evenodd" clip-rule="evenodd" d="M1144.98 177.117L1147.73 178.624C1147.79 178.658 1147.85 178.708 1147.88 178.769C1147.92 178.829 1147.94 178.899 1147.94 178.969C1147.94 179.039 1147.92 179.109 1147.88 179.169C1147.85 179.23 1147.79 179.28 1147.73 179.314L1144.98 180.822C1144.91 180.858 1144.86 180.912 1144.82 180.978L1143.32 183.734C1143.28 183.796 1143.23 183.849 1143.17 183.885C1143.11 183.921 1143.04 183.941 1142.97 183.941C1142.9 183.941 1142.83 183.921 1142.77 183.885C1142.71 183.849 1142.66 183.796 1142.62 183.734L1141.12 180.978C1141.08 180.912 1141.03 180.858 1140.96 180.822L1138.2 179.315C1138.14 179.281 1138.09 179.231 1138.06 179.171C1138.02 179.11 1138 179.041 1138 178.97C1138 178.899 1138.02 178.83 1138.06 178.769C1138.09 178.709 1138.14 178.659 1138.2 178.625L1140.96 177.117C1141.03 177.081 1141.08 177.027 1141.12 176.961L1142.62 174.206C1142.66 174.144 1142.71 174.093 1142.77 174.057C1142.83 174.021 1142.9 174.002 1142.97 174.002C1143.04 174.002 1143.11 174.021 1143.17 174.057C1143.23 174.093 1143.28 174.144 1143.31 174.206L1144.82 176.962C1144.86 177.028 1144.91 177.082 1144.98 177.119" fill="#E98333"/>
</g>
<g style="mix-blend-mode:lighten">
<path fill-rule="evenodd" clip-rule="evenodd" d="M1083.06 100.72L1084.42 101.465C1084.48 101.499 1084.53 101.549 1084.57 101.61C1084.6 101.671 1084.62 101.74 1084.62 101.811C1084.62 101.882 1084.6 101.951 1084.57 102.012C1084.53 102.073 1084.48 102.123 1084.42 102.157L1083.06 102.9C1082.99 102.937 1082.94 102.991 1082.9 103.057L1082.16 104.417C1082.12 104.479 1082.07 104.531 1082.01 104.567C1081.95 104.603 1081.88 104.623 1081.81 104.623C1081.74 104.623 1081.67 104.603 1081.61 104.567C1081.55 104.531 1081.5 104.479 1081.47 104.417L1080.72 103.057C1080.69 102.991 1080.63 102.936 1080.57 102.9L1079.21 102.157C1079.14 102.123 1079.09 102.073 1079.06 102.012C1079.02 101.951 1079 101.882 1079 101.811C1079 101.74 1079.02 101.671 1079.06 101.61C1079.09 101.549 1079.14 101.499 1079.21 101.465L1080.57 100.721C1080.63 100.685 1080.69 100.632 1080.72 100.566L1081.47 99.206C1081.5 99.1441 1081.55 99.0925 1081.61 99.0565C1081.67 99.0206 1081.74 99.0016 1081.81 99.0016C1081.88 99.0016 1081.95 99.0206 1082.01 99.0565C1082.07 99.0925 1082.12 99.1441 1082.16 99.206L1082.9 100.566C1082.94 100.632 1082.99 100.686 1083.06 100.722" fill="#FCD05C"/>
</g>
<g style="mix-blend-mode:lighten">
<path fill-rule="evenodd" clip-rule="evenodd" d="M1206.81 253.907C1206.81 254.678 1206.51 255.418 1205.96 255.963C1205.41 256.508 1204.68 256.813 1203.9 256.813C1203.13 256.813 1202.39 256.506 1201.85 255.96C1201.3 255.415 1201 254.675 1201 253.904C1201 253.522 1201.07 253.144 1201.22 252.792C1201.37 252.439 1201.58 252.118 1201.85 251.849C1202.12 251.579 1202.44 251.365 1202.79 251.219C1203.15 251.073 1203.53 250.998 1203.91 250.998C1204.29 250.998 1204.67 251.074 1205.02 251.22C1205.37 251.366 1205.69 251.581 1205.96 251.851C1206.23 252.121 1206.45 252.441 1206.59 252.794C1206.74 253.147 1206.81 253.525 1206.81 253.907ZM114.978 319.116L117.734 320.623C117.796 320.657 117.848 320.707 117.884 320.768C117.92 320.829 117.94 320.898 117.94 320.969C117.94 321.04 117.92 321.109 117.884 321.17C117.848 321.231 117.796 321.281 117.734 321.315L114.978 322.822C114.912 322.858 114.858 322.912 114.822 322.978L113.315 325.733C113.281 325.795 113.231 325.847 113.171 325.883C113.11 325.919 113.041 325.938 112.97 325.938C112.899 325.938 112.83 325.919 112.769 325.883C112.709 325.847 112.659 325.795 112.625 325.733L111.117 322.978C111.081 322.912 111.026 322.858 110.96 322.822L108.205 321.315C108.143 321.281 108.091 321.231 108.055 321.17C108.019 321.109 107.999 321.04 107.999 320.969C107.999 320.898 108.019 320.829 108.055 320.768C108.091 320.707 108.143 320.657 108.205 320.623L110.96 319.116C111.026 319.08 111.081 319.027 111.117 318.961L112.624 316.206C112.658 316.144 112.708 316.092 112.768 316.056C112.829 316.02 112.898 316.001 112.969 316.001C113.04 316.001 113.109 316.02 113.17 316.056C113.23 316.092 113.28 316.144 113.314 316.206L114.822 318.962C114.858 319.029 114.912 319.082 114.978 319.118" fill="#D15D64"/>
</g>
<g style="mix-blend-mode:lighten">
<path fill-rule="evenodd" clip-rule="evenodd" d="M206.057 452.72L207.417 453.465C207.479 453.499 207.531 453.549 207.566 453.61C207.602 453.671 207.621 453.74 207.621 453.811C207.621 453.882 207.602 453.951 207.566 454.012C207.531 454.073 207.479 454.123 207.417 454.157L206.057 454.9C205.991 454.937 205.937 454.991 205.901 455.057L205.158 456.417C205.124 456.479 205.074 456.531 205.013 456.567C204.952 456.603 204.883 456.623 204.812 456.623C204.741 456.623 204.672 456.603 204.611 456.567C204.55 456.531 204.5 456.479 204.466 456.417L203.723 455.057C203.687 454.991 203.632 454.936 203.566 454.9L202.206 454.157C202.144 454.123 202.092 454.073 202.056 454.012C202.02 453.951 202.002 453.882 202.002 453.811C202.002 453.74 202.02 453.671 202.056 453.61C202.092 453.549 202.144 453.499 202.206 453.465L203.566 452.721C203.632 452.685 203.687 452.632 203.723 452.566L204.466 451.206C204.5 451.144 204.55 451.092 204.611 451.057C204.672 451.021 204.741 451.002 204.812 451.002C204.883 451.002 204.952 451.021 205.013 451.057C205.074 451.092 205.124 451.144 205.158 451.206L205.902 452.566C205.939 452.632 205.994 452.686 206.059 452.722" fill="#FCD05C"/>
</g>
<g style="mix-blend-mode:lighten">
<path fill-rule="evenodd" clip-rule="evenodd" d="M1661.98 527.116L1664.73 528.624C1664.79 528.658 1664.85 528.708 1664.88 528.769C1664.92 528.83 1664.94 528.899 1664.94 528.97C1664.94 529.041 1664.92 529.11 1664.88 529.171C1664.85 529.232 1664.79 529.282 1664.73 529.316L1661.98 530.822C1661.91 530.858 1661.86 530.913 1661.82 530.979L1660.32 533.733C1660.28 533.796 1660.23 533.848 1660.17 533.884C1660.11 533.92 1660.04 533.94 1659.97 533.94C1659.9 533.94 1659.83 533.92 1659.77 533.884C1659.71 533.848 1659.66 533.796 1659.62 533.733L1658.12 530.978C1658.08 530.911 1658.03 530.856 1657.96 530.82L1655.2 529.314C1655.14 529.28 1655.09 529.23 1655.05 529.169C1655.02 529.108 1655 529.039 1655 528.968C1655 528.897 1655.02 528.828 1655.05 528.767C1655.09 528.706 1655.14 528.656 1655.2 528.622L1657.96 527.114C1658.03 527.079 1658.08 527.025 1658.12 526.959L1659.62 524.204C1659.66 524.142 1659.71 524.09 1659.77 524.054C1659.83 524.018 1659.9 523.999 1659.97 523.999C1660.04 523.999 1660.11 524.018 1660.17 524.054C1660.23 524.09 1660.28 524.142 1660.31 524.204L1661.82 526.959C1661.86 527.025 1661.91 527.079 1661.98 527.115M1376.88 100.645L1378.18 101.355C1378.44 101.499 1378.44 101.875 1378.18 102.015L1376.88 102.728C1376.81 102.762 1376.76 102.814 1376.73 102.876L1376.02 104.176C1375.98 104.235 1375.94 104.284 1375.88 104.318C1375.82 104.353 1375.75 104.371 1375.69 104.371C1375.62 104.371 1375.55 104.353 1375.5 104.318C1375.44 104.284 1375.39 104.235 1375.36 104.176L1374.65 102.876C1374.61 102.813 1374.56 102.762 1374.49 102.728L1373.19 102.016C1373.14 101.983 1373.09 101.936 1373.05 101.878C1373.02 101.82 1373 101.753 1373 101.686C1373 101.619 1373.02 101.553 1373.05 101.494C1373.09 101.436 1373.14 101.389 1373.19 101.356L1374.49 100.646C1374.56 100.611 1374.61 100.559 1374.65 100.496L1375.35 99.196C1375.39 99.1363 1375.44 99.0864 1375.49 99.0516C1375.55 99.0168 1375.62 98.9984 1375.69 98.9984C1375.75 98.9984 1375.82 99.0168 1375.88 99.0516C1375.94 99.0864 1375.98 99.1363 1376.02 99.196L1376.73 100.496C1376.76 100.559 1376.81 100.611 1376.88 100.646" fill="#D15D64"/>
</g>
<g style="mix-blend-mode:lighten">
<path fill-rule="evenodd" clip-rule="evenodd" d="M1634.06 382.72L1635.42 383.465C1635.48 383.499 1635.53 383.549 1635.57 383.61C1635.6 383.671 1635.62 383.74 1635.62 383.811C1635.62 383.882 1635.6 383.951 1635.57 384.012C1635.53 384.073 1635.48 384.123 1635.42 384.157L1634.06 384.9C1633.99 384.937 1633.94 384.991 1633.9 385.057L1633.16 386.417C1633.12 386.479 1633.07 386.531 1633.01 386.567C1632.95 386.603 1632.88 386.623 1632.81 386.623C1632.74 386.623 1632.67 386.603 1632.61 386.567C1632.55 386.531 1632.5 386.479 1632.47 386.417L1631.72 385.057C1631.69 384.991 1631.63 384.936 1631.57 384.9L1630.21 384.157C1630.14 384.123 1630.09 384.073 1630.06 384.012C1630.02 383.951 1630 383.882 1630 383.811C1630 383.74 1630.02 383.671 1630.06 383.61C1630.09 383.549 1630.14 383.499 1630.21 383.465L1631.57 382.721C1631.63 382.685 1631.69 382.632 1631.72 382.566L1632.47 381.206C1632.5 381.144 1632.55 381.092 1632.61 381.057C1632.67 381.021 1632.74 381.002 1632.81 381.002C1632.88 381.002 1632.95 381.021 1633.01 381.057C1633.07 381.092 1633.12 381.144 1633.16 381.206L1633.9 382.566C1633.94 382.632 1633.99 382.686 1634.06 382.722" fill="#FCD05C"/>
</g>
<path fill-rule="evenodd" clip-rule="evenodd" d="M411 385.888L414.554 385L413.667 388.554L411 385.888Z" stroke="#E98333" stroke-width="1.097" stroke-linecap="round" stroke-linejoin="round"/>
<g style="mix-blend-mode:lighten">
<path fill-rule="evenodd" clip-rule="evenodd" d="M522.226 503.018L524.244 504.122L522.226 505.225L521.122 507.243L520.018 505.225L518 504.122L520.018 503.018L521.122 501L522.226 503.018Z" fill="#00A959"/>
</g>
<g style="mix-blend-mode:lighten">
<path fill-rule="evenodd" clip-rule="evenodd" d="M530.98 40.117L533.734 41.624C533.796 41.6581 533.847 41.708 533.883 41.7687C533.919 41.8294 533.938 41.8986 533.938 41.969C533.938 42.0395 533.919 42.1087 533.883 42.1694C533.847 42.23 533.796 42.28 533.734 42.314L530.979 43.822C530.913 43.8579 530.858 43.9121 530.821 43.978L529.315 46.734C529.281 46.7965 529.231 46.8487 529.171 46.8851C529.11 46.9215 529.04 46.9407 528.969 46.9407C528.898 46.9407 528.828 46.9215 528.768 46.8851C528.707 46.8487 528.657 46.7965 528.623 46.734L527.116 43.978C527.079 43.9124 527.025 43.8583 526.959 43.822L524.204 42.315C524.142 42.2812 524.09 42.2313 524.054 42.1706C524.018 42.1099 523.999 42.0406 523.999 41.97C523.999 41.8994 524.018 41.8301 524.054 41.7694C524.09 41.7087 524.142 41.6588 524.204 41.625L526.959 40.117C527.025 40.0807 527.079 40.0267 527.116 39.961L528.624 37.206C528.658 37.1443 528.708 37.0929 528.769 37.057C528.829 37.0212 528.899 37.0023 528.969 37.0023C529.039 37.0023 529.109 37.0212 529.169 37.057C529.23 37.0929 529.28 37.1443 529.314 37.206L530.821 39.962C530.858 40.028 530.911 40.082 530.978 40.119" fill="#E98333"/>
</g>
<path fill-rule="evenodd" clip-rule="evenodd" d="M653.86 202.256L653.013 200.656C652.972 200.58 652.909 200.517 652.833 200.476L651.233 199.628C651.163 199.591 651.105 199.536 651.064 199.468C651.023 199.401 651.001 199.323 651.001 199.244C651.001 199.165 651.023 199.087 651.064 199.02C651.105 198.952 651.163 198.897 651.233 198.86L652.833 198.013C652.909 197.972 652.972 197.909 653.013 197.833L653.86 196.233C653.897 196.163 653.952 196.104 654.02 196.063C654.088 196.022 654.166 196 654.245 196C654.324 196 654.402 196.022 654.47 196.063C654.538 196.104 654.593 196.163 654.63 196.233L655.475 197.833C655.516 197.909 655.579 197.972 655.655 198.013L657.255 198.86C657.565 199.023 657.565 199.465 657.255 199.628L655.655 200.475C655.578 200.516 655.516 200.578 655.475 200.655L654.629 202.255C654.592 202.325 654.537 202.384 654.469 202.425C654.401 202.466 654.323 202.488 654.244 202.488C654.165 202.488 654.087 202.466 654.019 202.425C653.951 202.384 653.896 202.325 653.859 202.255L653.86 202.256Z" stroke="#7B63AB" stroke-width="1.097" stroke-linecap="round" stroke-linejoin="round"/>
<g style="mix-blend-mode:lighten">
<path fill-rule="evenodd" clip-rule="evenodd" d="M593.978 161.117L596.734 162.624C596.796 162.658 596.847 162.708 596.883 162.769C596.919 162.829 596.938 162.899 596.938 162.969C596.938 163.039 596.919 163.109 596.883 163.169C596.847 163.23 596.796 163.28 596.734 163.314L593.978 164.821C593.912 164.858 593.858 164.914 593.822 164.981L592.315 167.735C592.281 167.797 592.231 167.849 592.171 167.885C592.11 167.921 592.041 167.94 591.97 167.94C591.899 167.94 591.83 167.921 591.769 167.885C591.709 167.849 591.659 167.797 591.625 167.735L590.117 164.979C590.081 164.913 590.026 164.858 589.96 164.822L587.205 163.317C587.143 163.283 587.092 163.233 587.056 163.172C587.02 163.112 587.001 163.042 587.001 162.972C587.001 162.902 587.02 162.832 587.056 162.772C587.092 162.711 587.143 162.661 587.205 162.627L589.96 161.119C590.026 161.083 590.081 161.029 590.117 160.963L591.624 158.208C591.658 158.146 591.708 158.094 591.768 158.058C591.829 158.022 591.898 158.003 591.969 158.003C592.04 158.003 592.109 158.022 592.17 158.058C592.23 158.094 592.28 158.146 592.314 158.208L593.822 160.963C593.858 161.029 593.912 161.083 593.978 161.119" fill="#D15D64"/>
</g>
<g style="mix-blend-mode:lighten">
<path fill-rule="evenodd" clip-rule="evenodd" d="M177.98 127.117L180.734 128.624C180.796 128.658 180.847 128.708 180.883 128.769C180.919 128.829 180.938 128.899 180.938 128.969C180.938 129.039 180.919 129.109 180.883 129.169C180.847 129.23 180.796 129.28 180.734 129.314L177.978 130.822C177.912 130.858 177.858 130.912 177.822 130.978L176.315 133.734C176.281 133.796 176.231 133.848 176.171 133.884C176.11 133.92 176.041 133.939 175.97 133.939C175.899 133.939 175.83 133.92 175.769 133.884C175.709 133.848 175.659 133.796 175.625 133.734L174.118 130.978C174.08 130.912 174.025 130.858 173.958 130.822L171.206 129.315C171.144 129.281 171.092 129.231 171.056 129.171C171.02 129.11 171.001 129.041 171.001 128.97C171.001 128.899 171.02 128.83 171.056 128.769C171.092 128.709 171.144 128.659 171.206 128.625L173.96 127.117C174.026 127.081 174.08 127.027 174.117 126.961L175.625 124.206C175.659 124.144 175.709 124.093 175.77 124.057C175.83 124.021 175.9 124.002 175.97 124.002C176.04 124.002 176.11 124.021 176.17 124.057C176.231 124.093 176.281 124.144 176.315 124.206L177.822 126.962C177.858 127.028 177.912 127.082 177.978 127.119" fill="#E98333"/>
</g>
<g style="mix-blend-mode:lighten">
<path fill-rule="evenodd" clip-rule="evenodd" d="M299.813 56.907C299.813 57.6782 299.506 58.4175 298.96 58.9625C298.415 59.5075 297.675 59.8134 296.904 59.813C296.133 59.8126 295.394 59.5059 294.849 58.9604C294.304 58.4149 293.998 57.6752 293.998 56.904C293.998 56.5222 294.074 56.1442 294.22 55.7915C294.366 55.4388 294.581 55.1184 294.851 54.8486C295.121 54.5787 295.441 54.3647 295.794 54.2188C296.147 54.0729 296.525 53.9979 296.907 53.998C297.289 53.9982 297.667 54.0736 298.02 54.2199C298.372 54.3662 298.693 54.5806 298.962 54.8507C299.232 55.1208 299.446 55.4415 299.592 55.7943C299.738 56.1471 299.813 56.5252 299.813 56.907Z" fill="#D15D64"/>
</g>
<path fill-rule="evenodd" clip-rule="evenodd" d="M50.86 205.256L50.013 203.656C49.972 203.58 49.9094 203.517 49.833 203.476L48.233 202.628C48.163 202.591 48.1045 202.536 48.0637 202.468C48.0228 202.401 48.0012 202.323 48.0012 202.244C48.0012 202.165 48.0228 202.087 48.0637 202.02C48.1045 201.952 48.163 201.897 48.233 201.86L49.833 201.013C49.9093 200.972 49.9719 200.909 50.013 200.833L50.86 199.233C50.8969 199.163 50.9522 199.104 51.0201 199.063C51.088 199.022 51.1657 199 51.245 199C51.3243 199 51.402 199.022 51.4699 199.063C51.5377 199.104 51.5931 199.163 51.63 199.233L52.475 200.833C52.5159 200.909 52.5786 200.972 52.655 201.013L54.255 201.86C54.565 202.023 54.565 202.465 54.255 202.628L52.655 203.475C52.5784 203.516 52.5157 203.578 52.475 203.655L51.629 205.255C51.5921 205.325 51.5367 205.384 51.4689 205.425C51.401 205.466 51.3233 205.488 51.244 205.488C51.1647 205.488 51.087 205.466 51.0191 205.425C50.9513 205.384 50.8959 205.325 50.859 205.255L50.86 205.256Z" stroke="#7B63AB" stroke-width="1.097" stroke-linecap="round" stroke-linejoin="round"/>
<g style="mix-blend-mode:lighten">
<path fill-rule="evenodd" clip-rule="evenodd" d="M1690.98 261.116L1693.73 262.623C1693.79 262.657 1693.85 262.707 1693.88 262.768C1693.92 262.829 1693.94 262.898 1693.94 262.969C1693.94 263.04 1693.92 263.109 1693.88 263.17C1693.85 263.231 1693.79 263.281 1693.73 263.315L1690.98 264.822C1690.91 264.858 1690.86 264.912 1690.82 264.978L1689.32 267.733C1689.28 267.796 1689.23 267.848 1689.17 267.884C1689.11 267.92 1689.04 267.94 1688.97 267.94C1688.9 267.94 1688.83 267.92 1688.77 267.884C1688.71 267.848 1688.66 267.796 1688.62 267.733L1687.12 264.978C1687.08 264.912 1687.03 264.857 1686.96 264.822L1684.2 263.315C1684.14 263.281 1684.09 263.231 1684.05 263.17C1684.02 263.109 1684 263.04 1684 262.969C1684 262.898 1684.02 262.829 1684.05 262.768C1684.09 262.707 1684.14 262.657 1684.2 262.623L1686.96 261.116C1687.03 261.081 1687.08 261.027 1687.12 260.961L1688.62 258.206C1688.66 258.144 1688.71 258.092 1688.77 258.056C1688.83 258.02 1688.9 258.001 1688.97 258.001C1689.04 258.001 1689.11 258.02 1689.17 258.056C1689.23 258.092 1689.28 258.144 1689.31 258.206L1690.82 260.962C1690.86 261.028 1690.91 261.082 1690.98 261.118" fill="#D15D64"/>
</g>
<g style="mix-blend-mode:lighten">
<path fill-rule="evenodd" clip-rule="evenodd" d="M1637.06 223.722L1638.42 224.465C1638.48 224.499 1638.53 224.549 1638.57 224.61C1638.6 224.671 1638.62 224.74 1638.62 224.811C1638.62 224.882 1638.6 224.951 1638.57 225.012C1638.53 225.073 1638.48 225.123 1638.42 225.157L1637.06 225.901C1636.99 225.938 1636.94 225.992 1636.9 226.058L1636.16 227.418C1636.12 227.48 1636.07 227.532 1636.01 227.568C1635.95 227.603 1635.88 227.622 1635.81 227.622C1635.74 227.622 1635.67 227.603 1635.61 227.568C1635.55 227.532 1635.5 227.48 1635.47 227.418L1634.72 226.058C1634.69 225.992 1634.63 225.938 1634.57 225.902L1633.21 225.159C1633.14 225.125 1633.09 225.075 1633.06 225.014C1633.02 224.953 1633 224.884 1633 224.813C1633 224.742 1633.02 224.673 1633.06 224.612C1633.09 224.551 1633.14 224.501 1633.21 224.467L1634.57 223.724C1634.63 223.688 1634.69 223.633 1634.72 223.567L1635.47 222.207C1635.5 222.145 1635.55 222.093 1635.61 222.057C1635.67 222.022 1635.74 222.003 1635.81 222.003C1635.88 222.003 1635.95 222.022 1636.01 222.057C1636.07 222.093 1636.12 222.145 1636.16 222.207L1636.9 223.567C1636.94 223.633 1636.99 223.688 1637.06 223.724" fill="#7B63AB"/>
</g>
<g style="mix-blend-mode:lighten">
<path fill-rule="evenodd" clip-rule="evenodd" d="M1611.88 48.645L1613.18 49.355C1613.44 49.5 1613.44 49.875 1613.18 50.017L1611.88 50.727C1611.81 50.7618 1611.76 50.8138 1611.73 50.877L1611.02 52.177C1610.98 52.236 1610.94 52.2852 1610.88 52.3194C1610.82 52.3537 1610.75 52.3717 1610.69 52.3717C1610.62 52.3717 1610.55 52.3537 1610.5 52.3194C1610.44 52.2852 1610.39 52.236 1610.36 52.177L1609.65 50.877C1609.61 50.8137 1609.56 50.7617 1609.49 50.727L1608.19 50.017C1608.14 49.9846 1608.09 49.9367 1608.05 49.8785C1608.02 49.8203 1608 49.7538 1608 49.686C1608 49.6183 1608.02 49.5518 1608.05 49.4935C1608.09 49.4353 1608.14 49.3874 1608.19 49.355L1609.49 48.645C1609.56 48.6098 1609.61 48.5579 1609.65 48.495L1610.35 47.197C1610.39 47.1373 1610.44 47.0874 1610.49 47.0526C1610.55 47.0178 1610.62 46.9994 1610.69 46.9994C1610.75 46.9994 1610.82 47.0178 1610.88 47.0526C1610.94 47.0874 1610.98 47.1373 1611.02 47.197L1611.73 48.495C1611.76 48.5581 1611.81 48.6101 1611.88 48.645Z" fill="#D15D64"/>
</g>
<g style="mix-blend-mode:lighten">
<path fill-rule="evenodd" clip-rule="evenodd" d="M1663.06 116.72L1664.42 117.465C1664.48 117.499 1664.53 117.549 1664.57 117.61C1664.6 117.671 1664.62 117.74 1664.62 117.811C1664.62 117.882 1664.6 117.951 1664.57 118.012C1664.53 118.073 1664.48 118.123 1664.42 118.157L1663.06 118.9C1662.99 118.937 1662.94 118.991 1662.9 119.057L1662.16 120.417C1662.12 120.479 1662.07 120.531 1662.01 120.567C1661.95 120.603 1661.88 120.623 1661.81 120.623C1661.74 120.623 1661.67 120.603 1661.61 120.567C1661.55 120.531 1661.5 120.479 1661.47 120.417L1660.72 119.057C1660.69 118.991 1660.63 118.936 1660.57 118.9L1659.21 118.157C1659.14 118.123 1659.09 118.073 1659.06 118.012C1659.02 117.951 1659 117.882 1659 117.811C1659 117.74 1659.02 117.671 1659.06 117.61C1659.09 117.549 1659.14 117.499 1659.21 117.465L1660.57 116.721C1660.63 116.685 1660.69 116.632 1660.72 116.566L1661.47 115.206C1661.5 115.144 1661.55 115.092 1661.61 115.057C1661.67 115.021 1661.74 115.002 1661.81 115.002C1661.88 115.002 1661.95 115.021 1662.01 115.057C1662.07 115.092 1662.12 115.144 1662.16 115.206L1662.9 116.566C1662.94 116.632 1662.99 116.686 1663.06 116.722" fill="#FCD05C"/>
</g>
<mask id="mask0_1_5" style="mask-type:luminance" maskUnits="userSpaceOnUse" x="1580" y="434" width="7" height="6">
<path d="M1586.23 434.067V439.69H1580.61V434.066H1586.23V434.067Z" fill="#7B63AB"/>
</mask>
<g mask="url(#mask0_1_5)">
<path fill-rule="evenodd" clip-rule="evenodd" d="M1584.67 435.79L1586.03 436.533C1586.09 436.567 1586.14 436.617 1586.18 436.678C1586.21 436.739 1586.23 436.808 1586.23 436.879C1586.23 436.95 1586.21 437.019 1586.18 437.08C1586.14 437.141 1586.09 437.191 1586.03 437.225L1584.67 437.968C1584.6 438.004 1584.55 438.058 1584.51 438.124L1583.77 439.484C1583.73 439.546 1583.68 439.598 1583.62 439.634C1583.56 439.67 1583.49 439.69 1583.42 439.69C1583.35 439.69 1583.28 439.67 1583.22 439.634C1583.16 439.598 1583.11 439.546 1583.07 439.484L1582.33 438.124C1582.3 438.058 1582.24 438.004 1582.18 437.968L1580.82 437.225C1580.75 437.191 1580.7 437.141 1580.67 437.08C1580.63 437.019 1580.61 436.95 1580.61 436.879C1580.61 436.808 1580.63 436.739 1580.67 436.678C1580.7 436.617 1580.75 436.567 1580.82 436.533L1582.18 435.789C1582.24 435.753 1582.3 435.698 1582.33 435.632L1583.08 434.272C1583.11 434.21 1583.16 434.158 1583.22 434.122C1583.28 434.086 1583.35 434.066 1583.42 434.066C1583.49 434.066 1583.56 434.086 1583.62 434.122C1583.69 434.158 1583.74 434.21 1583.77 434.272L1584.51 435.632C1584.55 435.698 1584.6 435.752 1584.67 435.788" fill="#7B63AB"/>
</g>
<g style="mix-blend-mode:lighten">
<path fill-rule="evenodd" clip-rule="evenodd" d="M1384.98 483.118L1387.73 484.625C1387.79 484.659 1387.85 484.709 1387.88 484.77C1387.92 484.83 1387.94 484.9 1387.94 484.97C1387.94 485.04 1387.92 485.11 1387.88 485.17C1387.85 485.231 1387.79 485.281 1387.73 485.315L1384.98 486.822C1384.91 486.858 1384.86 486.912 1384.82 486.978L1383.32 489.733C1383.28 489.796 1383.23 489.848 1383.17 489.884C1383.11 489.92 1383.04 489.94 1382.97 489.94C1382.9 489.94 1382.83 489.92 1382.77 489.884C1382.71 489.848 1382.66 489.796 1382.62 489.733L1381.12 486.978C1381.08 486.912 1381.03 486.857 1380.96 486.822L1378.2 485.315C1378.14 485.281 1378.09 485.231 1378.06 485.171C1378.02 485.11 1378 485.041 1378 484.97C1378 484.899 1378.02 484.83 1378.06 484.769C1378.09 484.709 1378.14 484.659 1378.2 484.625L1380.96 483.118C1381.03 483.082 1381.08 483.027 1381.12 482.961L1382.62 480.206C1382.66 480.144 1382.71 480.092 1382.77 480.056C1382.83 480.02 1382.9 480.001 1382.97 480.001C1383.04 480.001 1383.11 480.02 1383.17 480.056C1383.23 480.092 1383.28 480.144 1383.31 480.206L1384.82 482.962C1384.86 483.029 1384.91 483.084 1384.98 483.12" fill="#FCD05C"/>
</g>
<g style="mix-blend-mode:lighten">
<path fill-rule="evenodd" clip-rule="evenodd" d="M1273.88 338.646L1275.18 339.356C1275.44 339.5 1275.44 339.876 1275.18 340.016L1273.88 340.728C1273.81 340.763 1273.76 340.815 1273.73 340.878L1273.02 342.176C1272.98 342.235 1272.94 342.284 1272.88 342.318C1272.82 342.353 1272.75 342.371 1272.69 342.371C1272.62 342.371 1272.55 342.353 1272.5 342.318C1272.44 342.284 1272.39 342.235 1272.36 342.176L1271.65 340.876C1271.61 340.813 1271.56 340.762 1271.49 340.728L1270.19 340.016C1270.14 339.983 1270.09 339.936 1270.05 339.878C1270.02 339.82 1270 339.753 1270 339.686C1270 339.619 1270.02 339.552 1270.05 339.494C1270.09 339.436 1270.14 339.389 1270.19 339.356L1271.49 338.646C1271.56 338.611 1271.61 338.559 1271.65 338.496L1272.35 337.196C1272.39 337.136 1272.44 337.086 1272.49 337.052C1272.55 337.017 1272.62 336.998 1272.69 336.998C1272.75 336.998 1272.82 337.017 1272.88 337.052C1272.94 337.086 1272.98 337.136 1273.02 337.196L1273.73 338.496C1273.76 338.559 1273.81 338.611 1273.88 338.646Z" fill="#D15D64"/>
</g>
<g style="mix-blend-mode:lighten">
<path fill-rule="evenodd" clip-rule="evenodd" d="M1494.06 406.72L1495.42 407.465C1495.48 407.499 1495.53 407.549 1495.57 407.61C1495.6 407.671 1495.62 407.74 1495.62 407.811C1495.62 407.882 1495.6 407.951 1495.57 408.012C1495.53 408.073 1495.48 408.123 1495.42 408.157L1494.06 408.9C1493.99 408.937 1493.94 408.991 1493.9 409.057L1493.16 410.417C1493.12 410.479 1493.07 410.531 1493.01 410.567C1492.95 410.603 1492.88 410.623 1492.81 410.623C1492.74 410.623 1492.67 410.603 1492.61 410.567C1492.55 410.531 1492.5 410.479 1492.47 410.417L1491.72 409.057C1491.69 408.991 1491.63 408.936 1491.57 408.9L1490.21 408.157C1490.14 408.123 1490.09 408.073 1490.06 408.012C1490.02 407.951 1490 407.882 1490 407.811C1490 407.74 1490.02 407.671 1490.06 407.61C1490.09 407.549 1490.14 407.499 1490.21 407.465L1491.57 406.721C1491.63 406.685 1491.69 406.632 1491.72 406.566L1492.47 405.206C1492.5 405.144 1492.55 405.092 1492.61 405.057C1492.67 405.021 1492.74 405.002 1492.81 405.002C1492.88 405.002 1492.95 405.021 1493.01 405.057C1493.07 405.092 1493.12 405.144 1493.16 405.206L1493.9 406.566C1493.94 406.632 1493.99 406.686 1494.06 406.722" fill="#FCD05C"/>
</g>
<path fill-rule="evenodd" clip-rule="evenodd" d="M1712 450.524L1713.76 449.982L1715.52 450.524L1714.98 448.762L1715.53 447L1713.76 447.543L1712 447L1712.54 448.762L1712 450.524Z" stroke="#00A959" stroke-width="1.097" stroke-linecap="round" stroke-linejoin="round"/>
<mask id="mask1_1_5" style="mask-type:luminance" maskUnits="userSpaceOnUse" x="1598" y="622" width="11" height="11">
<path d="M1598.67 622.697H1608.61V632.635H1598.67V622.697Z" fill="#D15D64"/>
</mask>
<g mask="url(#mask1_1_5)">
<path fill-rule="evenodd" clip-rule="evenodd" d="M1605.65 625.813L1608.4 627.32C1608.46 627.354 1608.52 627.404 1608.55 627.465C1608.59 627.525 1608.61 627.595 1608.61 627.665C1608.61 627.735 1608.59 627.805 1608.55 627.865C1608.52 627.926 1608.46 627.976 1608.4 628.01L1605.65 629.52C1605.58 629.556 1605.53 629.611 1605.49 629.677L1603.99 632.43C1603.95 632.492 1603.9 632.543 1603.84 632.579C1603.78 632.615 1603.71 632.634 1603.64 632.634C1603.57 632.634 1603.5 632.615 1603.44 632.579C1603.38 632.543 1603.33 632.492 1603.3 632.43L1601.79 629.675C1601.75 629.609 1601.69 629.554 1601.63 629.518L1598.87 628.01C1598.81 627.976 1598.76 627.926 1598.72 627.865C1598.69 627.805 1598.67 627.735 1598.67 627.665C1598.67 627.595 1598.69 627.525 1598.72 627.465C1598.76 627.404 1598.81 627.354 1598.87 627.32L1601.63 625.813C1601.7 625.777 1601.75 625.722 1601.79 625.656L1603.29 622.9C1603.33 622.838 1603.38 622.787 1603.44 622.751C1603.5 622.715 1603.57 622.696 1603.64 622.696C1603.71 622.696 1603.78 622.715 1603.84 622.751C1603.9 622.787 1603.95 622.838 1603.98 622.9L1605.49 625.656C1605.53 625.723 1605.58 625.777 1605.65 625.813" fill="#D15D64"/>
</g>
<path d="M70.472 513L69 514.47M74.47 509L73 510.47M70.543 513.163C70.8904 513.51 71.3617 513.706 71.853 513.706C72.3443 513.706 72.8156 513.51 73.163 513.163C73.5104 512.816 73.7056 512.344 73.7056 511.853C73.7056 511.362 73.5104 510.89 73.163 510.543C72.8156 510.196 72.3443 510 71.853 510C71.3617 510 70.8904 510.196 70.543 510.543C70.1956 510.89 70.0004 511.362 70.0004 511.853C70.0004 512.344 70.1956 512.816 70.543 513.163Z" stroke="#E98333" stroke-width="1.097" stroke-linecap="round" stroke-linejoin="round"/>
<g style="mix-blend-mode:lighten">
<path fill-rule="evenodd" clip-rule="evenodd" d="M239.057 1200.9L240.417 1200.16C240.479 1200.12 240.531 1200.07 240.566 1200.01C240.602 1199.95 240.621 1199.88 240.621 1199.81C240.621 1199.74 240.602 1199.67 240.566 1199.61C240.531 1199.55 240.479 1199.5 240.417 1199.46L239.057 1198.72C238.991 1198.69 238.937 1198.63 238.901 1198.56L238.158 1197.2C238.124 1197.14 238.074 1197.09 238.013 1197.05C237.952 1197.02 237.883 1197 237.812 1197C237.741 1197 237.672 1197.02 237.611 1197.05C237.55 1197.09 237.5 1197.14 237.466 1197.2L236.723 1198.56C236.687 1198.63 236.632 1198.69 236.566 1198.72L235.206 1199.46C235.144 1199.5 235.092 1199.55 235.056 1199.61C235.02 1199.67 235.002 1199.74 235.002 1199.81C235.002 1199.88 235.02 1199.95 235.056 1200.01C235.092 1200.07 235.144 1200.12 235.206 1200.16L236.566 1200.9C236.632 1200.94 236.686 1200.99 236.723 1201.06L237.466 1202.42C237.616 1202.69 238.008 1202.69 238.158 1202.42L238.902 1201.06C238.938 1200.99 238.993 1200.94 239.059 1200.9" fill="#FCD05C"/>
</g>
<g style="mix-blend-mode:lighten">
<path fill-rule="evenodd" clip-rule="evenodd" d="M206.057 793.9L207.417 793.156C207.479 793.122 207.531 793.072 207.566 793.011C207.602 792.95 207.621 792.881 207.621 792.81C207.621 792.739 207.602 792.67 207.566 792.609C207.531 792.548 207.479 792.498 207.417 792.464L206.057 791.721C205.991 791.685 205.937 791.631 205.901 791.565L205.158 790.205C205.124 790.143 205.074 790.091 205.013 790.055C204.952 790.019 204.883 789.999 204.812 789.999C204.741 789.999 204.672 790.019 204.611 790.055C204.55 790.091 204.5 790.143 204.466 790.205L203.723 791.565C203.687 791.632 203.632 791.687 203.566 791.723L202.206 792.465C202.144 792.499 202.092 792.549 202.056 792.61C202.02 792.671 202.002 792.74 202.002 792.811C202.002 792.882 202.02 792.951 202.056 793.012C202.092 793.073 202.144 793.123 202.206 793.157L203.566 793.902C203.632 793.939 203.686 793.992 203.723 794.058L204.466 795.418C204.616 795.691 205.008 795.691 205.158 795.418L205.902 794.058C205.938 793.992 205.993 793.938 206.059 793.902" fill="#FCD05C"/>
</g>
<path fill-rule="evenodd" clip-rule="evenodd" d="M411 894.666L414.554 895.554L413.667 892L411 894.666Z" stroke="#E98333" stroke-width="1.097" stroke-linecap="round" stroke-linejoin="round"/>
<g style="mix-blend-mode:lighten">
<path fill-rule="evenodd" clip-rule="evenodd" d="M522.226 745.225L524.244 744.121L522.226 743.019L521.122 741.001L520.018 743.019L518 744.12L520.018 745.225L521.122 747.243L522.226 745.225Z" fill="#00A959"/>
</g>
<g style="mix-blend-mode:lighten">
<path fill-rule="evenodd" clip-rule="evenodd" d="M177.98 1225.82L180.734 1224.32C180.796 1224.28 180.848 1224.23 180.884 1224.17C180.92 1224.11 180.94 1224.04 180.94 1223.97C180.94 1223.9 180.92 1223.83 180.884 1223.77C180.848 1223.71 180.796 1223.66 180.734 1223.62L177.978 1222.12C177.912 1222.08 177.858 1222.03 177.822 1221.96L176.315 1219.21C176.281 1219.14 176.231 1219.09 176.171 1219.06C176.11 1219.02 176.041 1219 175.97 1219C175.899 1219 175.83 1219.02 175.769 1219.06C175.709 1219.09 175.659 1219.14 175.625 1219.21L174.118 1221.96C174.081 1222.03 174.025 1222.08 173.958 1222.12L171.206 1223.63C171.144 1223.66 171.092 1223.71 171.056 1223.77C171.02 1223.83 171.001 1223.9 171.001 1223.97C171.001 1224.04 171.02 1224.11 171.056 1224.17C171.092 1224.23 171.144 1224.28 171.206 1224.32L173.96 1225.82C174.026 1225.86 174.08 1225.91 174.117 1225.98L175.625 1228.73C175.775 1229.01 176.165 1229.01 176.315 1228.73L177.822 1225.98C177.858 1225.91 177.912 1225.86 177.978 1225.82" fill="#E98333"/>
</g>
<g style="mix-blend-mode:lighten">
<path fill-rule="evenodd" clip-rule="evenodd" d="M299.813 1325.91C299.813 1325.13 299.506 1324.4 298.96 1323.85C298.415 1323.31 297.675 1323 296.904 1323C296.133 1323 295.394 1323.31 294.849 1323.85C294.304 1324.4 293.998 1325.14 293.998 1325.91C293.999 1326.68 294.305 1327.42 294.851 1327.96C295.397 1328.51 296.136 1328.81 296.908 1328.81C297.679 1328.81 298.418 1328.51 298.963 1327.96C299.508 1327.42 299.814 1326.68 299.813 1325.91Z" fill="#D15D64"/>
</g>
<path fill-rule="evenodd" clip-rule="evenodd" d="M50.86 1174.23L50.013 1175.83C49.972 1175.91 49.9094 1175.97 49.833 1176.01L48.233 1176.86C48.163 1176.9 48.1045 1176.95 48.0637 1177.02C48.0228 1177.09 48.0012 1177.16 48.0012 1177.24C48.0012 1177.32 48.0228 1177.4 48.0637 1177.47C48.1045 1177.54 48.163 1177.59 48.233 1177.63L49.833 1178.47C49.909 1178.51 49.973 1178.58 50.013 1178.66L50.86 1180.26C51.023 1180.57 51.465 1180.57 51.63 1180.26L52.475 1178.66C52.5159 1178.58 52.5786 1178.52 52.655 1178.47L54.255 1177.63C54.3249 1177.59 54.3835 1177.54 54.4243 1177.47C54.4652 1177.4 54.4867 1177.32 54.4867 1177.24C54.4867 1177.16 54.4652 1177.09 54.4243 1177.02C54.3835 1176.95 54.3249 1176.9 54.255 1176.86L52.655 1176.01C52.5784 1175.97 52.5157 1175.91 52.475 1175.83L51.629 1174.23C51.5921 1174.16 51.5367 1174.1 51.4689 1174.06C51.401 1174.02 51.3233 1174 51.244 1174C51.1647 1174 51.087 1174.02 51.0191 1174.06C50.9513 1174.1 50.8959 1174.16 50.859 1174.23L50.86 1174.23Z" stroke="#7B63AB" stroke-width="1.097" stroke-linecap="round" stroke-linejoin="round"/>
<g style="mix-blend-mode:lighten">
<path fill-rule="evenodd" clip-rule="evenodd" d="M1611.88 1349.73L1613.18 1349.02C1613.24 1348.98 1613.29 1348.94 1613.32 1348.88C1613.35 1348.82 1613.37 1348.75 1613.37 1348.69C1613.37 1348.62 1613.35 1348.55 1613.32 1348.5C1613.29 1348.44 1613.24 1348.39 1613.18 1348.36L1611.88 1347.65C1611.81 1347.61 1611.76 1347.56 1611.73 1347.49L1611.02 1346.19C1610.98 1346.14 1610.94 1346.09 1610.88 1346.05C1610.82 1346.02 1610.75 1346 1610.69 1346C1610.62 1346 1610.55 1346.02 1610.5 1346.05C1610.44 1346.09 1610.39 1346.14 1610.36 1346.19L1609.65 1347.49C1609.61 1347.56 1609.56 1347.61 1609.49 1347.65L1608.19 1348.35C1608.14 1348.39 1608.09 1348.44 1608.05 1348.49C1608.02 1348.55 1608 1348.62 1608 1348.69C1608 1348.75 1608.02 1348.82 1608.05 1348.88C1608.09 1348.94 1608.14 1348.98 1608.19 1349.02L1609.49 1349.73C1609.56 1349.76 1609.61 1349.81 1609.65 1349.88L1610.35 1351.18C1610.39 1351.24 1610.44 1351.29 1610.49 1351.32C1610.55 1351.36 1610.62 1351.37 1610.69 1351.37C1610.75 1351.37 1610.82 1351.36 1610.88 1351.32C1610.94 1351.29 1610.98 1351.24 1611.02 1351.18L1611.73 1349.88C1611.76 1349.81 1611.81 1349.76 1611.88 1349.73Z" fill="#D15D64"/>
</g>
<g style="mix-blend-mode:lighten">
<path fill-rule="evenodd" clip-rule="evenodd" d="M1663.06 1249.9L1664.42 1249.16C1664.48 1249.12 1664.53 1249.07 1664.57 1249.01C1664.6 1248.95 1664.62 1248.88 1664.62 1248.81C1664.62 1248.74 1664.6 1248.67 1664.57 1248.61C1664.53 1248.55 1664.48 1248.5 1664.42 1248.46L1663.06 1247.72C1662.99 1247.69 1662.94 1247.63 1662.9 1247.56L1662.16 1246.2C1662.12 1246.14 1662.07 1246.09 1662.01 1246.05C1661.95 1246.02 1661.88 1246 1661.81 1246C1661.74 1246 1661.67 1246.02 1661.61 1246.05C1661.55 1246.09 1661.5 1246.14 1661.47 1246.2L1660.72 1247.56C1660.69 1247.63 1660.63 1247.69 1660.57 1247.72L1659.21 1248.46C1659.14 1248.5 1659.09 1248.55 1659.06 1248.61C1659.02 1248.67 1659 1248.74 1659 1248.81C1659 1248.88 1659.02 1248.95 1659.06 1249.01C1659.09 1249.07 1659.14 1249.12 1659.21 1249.16L1660.57 1249.9C1660.63 1249.94 1660.69 1249.99 1660.72 1250.06L1661.47 1251.42C1661.62 1251.69 1662.01 1251.69 1662.16 1251.42L1662.9 1250.06C1662.94 1249.99 1662.99 1249.94 1663.06 1249.9" fill="#FCD05C"/>
</g>
<g style="mix-blend-mode:lighten">
<path fill-rule="evenodd" clip-rule="evenodd" d="M1384.98 770.822L1387.73 769.315C1387.8 769.281 1387.85 769.231 1387.88 769.17C1387.92 769.109 1387.94 769.04 1387.94 768.969C1387.94 768.898 1387.92 768.829 1387.88 768.768C1387.85 768.707 1387.8 768.657 1387.73 768.623L1384.98 767.117C1384.91 767.081 1384.86 767.027 1384.82 766.961L1383.32 764.206C1383.28 764.144 1383.23 764.091 1383.17 764.055C1383.11 764.019 1383.04 763.999 1382.97 763.999C1382.9 763.999 1382.83 764.019 1382.77 764.055C1382.71 764.091 1382.66 764.144 1382.62 764.206L1381.12 766.961C1381.08 767.028 1381.03 767.082 1380.96 767.118L1378.2 768.625C1378.14 768.659 1378.09 768.709 1378.06 768.769C1378.02 768.83 1378 768.899 1378 768.97C1378 769.041 1378.02 769.11 1378.06 769.171C1378.09 769.231 1378.14 769.281 1378.2 769.315L1380.96 770.823C1381.03 770.859 1381.08 770.914 1381.12 770.98L1382.62 773.734C1382.77 774.008 1383.17 774.008 1383.31 773.734L1384.82 770.979C1384.86 770.912 1384.91 770.857 1384.98 770.821" fill="#FCD05C"/>
</g>
<g style="mix-blend-mode:lighten">
<path fill-rule="evenodd" clip-rule="evenodd" d="M1494.06 873.9L1495.42 873.156C1495.48 873.122 1495.53 873.072 1495.57 873.011C1495.6 872.95 1495.62 872.881 1495.62 872.81C1495.62 872.739 1495.6 872.67 1495.57 872.609C1495.53 872.548 1495.48 872.498 1495.42 872.464L1494.06 871.721C1493.99 871.685 1493.94 871.631 1493.9 871.565L1493.16 870.205C1493.12 870.143 1493.07 870.091 1493.01 870.055C1492.95 870.019 1492.88 869.999 1492.81 869.999C1492.74 869.999 1492.67 870.019 1492.61 870.055C1492.55 870.091 1492.5 870.143 1492.47 870.205L1491.72 871.565C1491.69 871.632 1491.63 871.687 1491.57 871.723L1490.21 872.465C1490.14 872.499 1490.09 872.549 1490.06 872.61C1490.02 872.671 1490 872.74 1490 872.811C1490 872.882 1490.02 872.951 1490.06 873.012C1490.09 873.073 1490.14 873.123 1490.21 873.157L1491.57 873.902C1491.63 873.939 1491.69 873.992 1491.72 874.058L1492.47 875.418C1492.62 875.691 1493.01 875.691 1493.16 875.418L1493.9 874.058C1493.94 873.992 1493.99 873.938 1494.06 873.902" fill="#FCD05C"/>
</g>
<path fill-rule="evenodd" clip-rule="evenodd" d="M1712 812L1713.76 812.542L1715.52 812L1714.98 813.762L1715.53 815.524L1713.76 814.981L1712 815.525L1712.54 813.763L1712 812Z" stroke="#00A959" stroke-width="1.097" stroke-linecap="round" stroke-linejoin="round"/>
<path d="M70.472 721L69 719.53M74.47 725L73 723.53M70.543 720.837C70.8904 720.49 71.3617 720.294 71.853 720.294C72.3443 720.294 72.8156 720.49 73.163 720.837C73.5104 721.184 73.7056 721.656 73.7056 722.147C73.7056 722.638 73.5104 723.11 73.163 723.457C72.8156 723.804 72.3443 724 71.853 724C71.3617 724 70.8904 723.804 70.543 723.457C70.1956 723.11 70.0004 722.638 70.0004 722.147C70.0004 721.656 70.1956 721.184 70.543 720.837Z" stroke="#E98333" stroke-width="1.097" stroke-linecap="round" stroke-linejoin="round"/>
<g clip-path="url(#clip1_1_5)">
<path d="M1479.68 554.228L1410.63 514.362L1376.86 586.929L1400.6 611.468L1433.73 619.76L1479.68 554.228Z" fill="#7F888F"/>
<path d="M1441.64 540.387L1404.24 605.172L1430.74 611.806L1469.46 556.451L1441.64 540.387Z" fill="#7F888F"/>
<path d="M1421.71 574.912L1426.4 566.789L1443.86 576.872L1428.96 599.407L1409.87 595.424L1414.79 586.894L1424.76 588.859L1430.64 580.071L1421.71 574.912ZM1449.16 569.101L1454.46 561.329L1435.78 550.542L1431.09 558.665L1449.16 569.101Z" fill="white"/>
<path d="M1414.79 586.894L1409.87 595.424L1396.87 580.881L1402.51 569.242L1410.63 573.932L1408.11 579.244L1414.79 586.894ZM1421.14 552.92L1431.09 558.665L1435.78 550.542L1417.3 539.872L1404.65 565.063L1421.71 574.912L1426.4 566.789L1417.06 561.395L1421.14 552.92Z" fill="#EEEEEE"/>
</g>
<g clip-path="url(#clip2_1_5)">
<path d="M317.535 638.531L240.679 671.552L280.482 745.495L316.013 740.94L343.775 718.301L317.535 638.531Z" fill="#7F888F"/>
<path d="M282.021 661.823L313.003 733.932L335.212 715.821L312.989 648.518L282.021 661.823Z" fill="#7F888F"/>
<path d="M307.447 664.288L286.877 673.126L290.762 682.168L301.838 677.409L305.045 686.742L294.647 691.209L298.532 700.251L308.478 695.978L312.17 706.441L304.262 713.588L308.341 723.082L323.673 709.532L314.087 682.857L307.447 664.288Z" fill="white"/>
<path d="M286.877 673.126L290.762 682.168L270.644 690.811L266.081 682.061L286.877 673.126ZM284.249 695.677L288.585 704.525L298.532 700.251L294.647 691.209L284.249 695.677ZM290.98 708.851L281.938 712.736L287.958 724.877L308.341 723.082L304.262 713.588L293.634 714.405L290.98 708.851Z" fill="#EEEEEE"/>
</g>
<g clip-path="url(#clip3_1_5)">
<path d="M285.06 428.902C275.681 433.872 273.511 448.22 280.223 460.885C283.854 467.737 289.352 472.694 295.119 475.024C295.211 475.362 295.332 475.695 295.503 476.017C296.748 478.366 299.66 479.261 302.009 478.016C304.357 476.772 305.252 473.859 304.008 471.51C302.763 469.162 299.851 468.267 297.502 469.511C297.055 469.748 296.681 470.059 296.345 470.401C291.837 468.394 287.457 464.259 284.475 458.632C279.006 448.311 280.279 436.882 287.314 433.154C292.752 430.272 300.057 432.841 305.624 438.916C307.474 438.564 309.382 438.344 311.326 438.269C304.193 428.763 293.223 424.576 285.06 428.902Z" fill="#7F888F"/>
<path d="M314.869 442.306C307.478 441.88 300.414 443.717 295.379 447.262C294.088 446.71 292.575 446.705 291.239 447.414C288.89 448.658 287.995 451.571 289.24 453.919C290.484 456.268 293.397 457.163 295.745 455.918C297.548 454.963 298.484 453.024 298.263 451.113C302.398 448.234 308.317 446.749 314.593 447.113C326.584 447.804 336.239 454.83 336.115 462.779C336.073 465.532 334.807 468.141 332.457 470.327C329.676 472.91 325.656 474.646 321.108 475.382C320.499 477.107 319.754 478.819 318.874 480.502C323.33 480.169 327.519 479.015 331.024 477.157C332.782 476.226 334.37 475.118 335.733 473.85C339.068 470.753 340.864 466.948 340.927 462.852C341.092 452.361 329.401 443.144 314.869 442.306Z" fill="#7F888F"/>
<path d="M320.842 455.314C319.601 452.972 316.691 452.081 314.342 453.326C311.993 454.571 311.096 457.479 312.337 459.82C312.839 460.769 313.622 461.465 314.524 461.891C314.815 466.824 313.398 472.594 310.205 477.937C306.488 484.163 301.009 488.624 295.556 489.879C292.428 490.596 289.558 490.178 287.256 488.668C282.52 485.56 280.977 478.604 282.702 471.132C281.385 469.753 280.148 468.237 279.016 466.595C275.433 477.203 277.445 487.985 284.617 492.691C288.042 494.94 292.198 495.589 296.634 494.569C298.448 494.152 300.256 493.462 302.015 492.53C306.757 490.016 311.144 485.753 314.338 480.408C318.029 474.231 319.622 467.483 319.242 461.539C321.272 460.185 322.005 457.509 320.842 455.314Z" fill="#7F888F"/>
</g>
<g clip-path="url(#clip4_1_5)">
<path d="M262.173 1235.63C251.088 1242.03 247.359 1251.58 250.986 1264.26C251.944 1256.32 255.594 1251.44 261.936 1249.62C265.555 1248.59 269.14 1249.58 273.109 1250.67C279.569 1252.45 287.05 1254.52 297.354 1248.57C308.439 1242.17 312.168 1232.63 308.54 1219.95C307.583 1227.89 303.933 1232.76 297.591 1234.58C293.974 1235.62 290.389 1234.63 286.42 1233.53C279.957 1231.75 272.475 1229.69 262.173 1235.63ZM255.785 1272.57C244.699 1278.97 240.97 1288.51 244.598 1301.19C245.556 1293.25 249.206 1288.37 255.548 1286.56C259.166 1285.53 262.751 1286.51 266.718 1287.61C273.182 1289.39 280.664 1291.45 290.966 1285.51C302.051 1279.11 305.781 1269.56 302.153 1256.88C301.195 1264.82 297.545 1269.7 291.203 1271.52C287.584 1272.55 283.999 1271.56 280.031 1270.47C273.569 1268.68 266.089 1266.62 255.785 1272.57Z" fill="#7F888F"/>
</g>
<g clip-path="url(#clip5_1_5)">
<path d="M1374.16 1297.67C1373.17 1297.1 1372.33 1296.27 1371.75 1295.27L1365.78 1284.65C1364.86 1283.11 1365.68 1283.22 1366.21 1283.33C1368.39 1283.74 1368.83 1283.81 1371.4 1283.82C1371.67 1283.83 1371.91 1284.02 1372.04 1284.26L1376.63 1292.43C1376.8 1292.71 1377.16 1292.92 1377.47 1292.91L1413.72 1292.92C1414.05 1292.92 1414.39 1292.72 1414.56 1292.42L1432.67 1261.05C1432.85 1260.74 1432.85 1260.36 1432.68 1260.06L1414.56 1228.69C1414.4 1228.39 1414.06 1228.2 1413.72 1228.2L1377.5 1228.19C1377.15 1228.19 1376.81 1228.39 1376.64 1228.69L1358.53 1260.06C1358.35 1260.36 1358.35 1260.74 1358.53 1261.03L1363.49 1269.63C1366.37 1273.99 1370.21 1273.03 1371.6 1270.64L1389.47 1239.67C1389.73 1239.23 1390.27 1239.09 1390.71 1239.35L1394.16 1241.33C1394.59 1241.58 1394.74 1242.13 1394.49 1242.57L1376.6 1273.55C1373.49 1278.94 1368.76 1280.34 1363.65 1277.39C1362.08 1276.48 1360.84 1275.76 1358.37 1272.07L1353.61 1263.84C1352.43 1261.8 1352.44 1259.26 1353.62 1257.23L1371.73 1225.86C1372.91 1223.81 1375.1 1222.54 1377.44 1222.55L1413.73 1222.56C1416.01 1222.58 1418.3 1223.9 1419.44 1225.86L1437.56 1257.26C1438.73 1259.29 1438.73 1261.82 1437.55 1263.86L1419.43 1295.24C1418.26 1297.27 1416.06 1298.54 1413.72 1298.55L1377.47 1298.55C1376.31 1298.55 1375.17 1298.24 1374.17 1297.66" fill="#7F888F"/>
<path d="M1395.04 1280.9C1383.15 1274.04 1383.81 1267.14 1386.45 1262.56C1386.7 1262.12 1387.25 1261.98 1387.69 1262.23L1391.2 1264.26C1391.59 1264.48 1391.76 1264.95 1391.59 1265.37C1390.06 1269.25 1390.6 1271.97 1397.79 1276.12C1403.52 1279.43 1406.7 1279.54 1408.46 1276.5C1409.47 1274.76 1409.52 1273.06 1401.13 1267.05C1394.1 1262.01 1390.45 1257.72 1393.89 1251.76C1397.06 1246.28 1403.57 1245.68 1411.32 1250.16C1420.03 1255.18 1422.6 1260.69 1419.39 1267.5C1419.28 1267.74 1419.08 1267.91 1418.83 1267.98C1418.59 1268.05 1418.32 1268.03 1418.11 1267.9L1414.57 1265.86C1414.21 1265.65 1414.04 1265.21 1414.17 1264.81C1415.49 1260.56 1414.13 1258.16 1408.54 1254.94C1402.29 1251.33 1400.3 1253.08 1399.36 1254.72C1398.22 1256.7 1398.74 1257.77 1406.53 1263.76C1414.25 1269.69 1417.31 1273.55 1413.92 1279.42C1410.5 1285.34 1403.6 1285.89 1394.99 1280.91" fill="#7F888F"/>
</g>
</g>
<defs>
<clipPath id="clip0_1_5">
<rect width="1764" height="1351" fill="white"/>
</clipPath>
<clipPath id="clip1_1_5">
<rect width="112.562" height="112.562" fill="white" transform="translate(1402.28 496) rotate(30)"/>
</clipPath>
<clipPath id="clip2_1_5">
<rect width="118.093" height="118.093" fill="white" transform="translate(220 667.049) rotate(-23.2508)"/>
</clipPath>
<clipPath id="clip3_1_5">
<rect width="77" height="77" fill="white" transform="translate(249.454 440.508) rotate(-27.9194)"/>
</clipPath>
<clipPath id="clip4_1_5">
<rect width="96" height="96" fill="white" transform="translate(211 1243) rotate(-30)"/>
</clipPath>
<clipPath id="clip5_1_5">
<rect width="96" height="96" fill="white" transform="translate(1378 1195) rotate(30)"/>
</clipPath>
</defs>
</svg>
